HIERARCHY
ROOT hip
{
OFFSET 0 95.04 -0.19
CHANNELS 6 Xposition Yposition Zposition Zrotation Xrotation Yrotation
JOINT abdomen
{
OFFSET 0 7.23 0
CHANNELS 6 Xposition Yposition Zposition Zrotation Xrotation Yrotation
JOINT chest
{
OFFSET 0 16.54 0
CHANNELS 6 Xposition Yposition Zposition Zrotation Xrotation Yrotation
JOINT neck
{
OFFSET 0 34.21 0
CHANNELS 6 Xposition Yposition Zposition Zrotation Xrotation Yrotation
JOINT head
{
OFFSET 0 6.29 0
CHANNELS 6 Xposition Yposition Zposition Zrotation Xrotation Yrotation
End Site
{
OFFSET 0 21.21 0
}
}
}
JOINT lCollar
{
OFFSET 4.06 26.61 -1.12
CHANNELS 6 Xposition Yposition Zposition Zrotation Xrotation Yrotation
JOINT lShldr
{
OFFSET 14.17 0 0
CHANNELS 6 Xposition Yposition Zposition Zrotation Xrotation Yrotation
JOINT lForeArm
{
OFFSET 26.12 0 0
CHANNELS 6 Xposition Yposition Zposition Zrotation Xrotation Yrotation
JOINT lHand
{
OFFSET 27.71 0 0
CHANNELS 6 Xposition Yposition Zposition Zrotation Xrotation Yrotation
JOINT lThumb1
{
OFFSET 2.29 -0.46 1.83
CHANNELS 6 Xposition Yposition Zposition Zrotation Xrotation Yrotation
JOINT lThumb2
{
OFFSET 5.29 0 0
CHANNELS 6 Xposition Yposition Zposition Zrotation Xrotation Yrotation
JOINT lThumb3
{
OFFSET 3.01 0 0
CHANNELS 6 Xposition Yposition Zposition Zrotation Xrotation Yrotation
End Site
{
OFFSET 2.62 0 0
}
}
}
}
JOINT lIndex1
{
OFFSET 9.37 0.29 2.59
CHANNELS 6 Xposition Yposition Zposition Zrotation Xrotation Yrotation
JOINT lIndex2
{
OFFSET 4.34 0 0
CHANNELS 6 Xposition Yposition Zposition Zrotation Xrotation Yrotation
JOINT lIndex3
{
OFFSET 2.16 0 0
CHANNELS 6 Xposition Yposition Zposition Zrotation Xrotation Yrotation
End Site
{
OFFSET 2.20 0 0
}
}
}
}
JOINT lMid1
{
OFFSET 9.47 0.83 0.29
CHANNELS 6 Xposition Yposition Zposition Zrotation Xrotation Yrotation
JOINT lMid2
{
OFFSET 4.77 0 0
CHANNELS 6 Xposition Yposition Zposition Zrotation Xrotation Yrotation
JOINT lMid3
{
OFFSET 2.87 0 0
CHANNELS 6 Xposition Yposition Zposition Zrotation Xrotation Yrotation
End Site
{
OFFSET 2.09 0 0
}
}
}
}
JOINT lRing1
{
OFFSET 8.65 1.01 -1.70
CHANNELS 6 Xposition Yposition Zposition Zrotation Xrotation Yrotation
JOINT lRing2
{
OFFSET 4.54 0 0
CHANNELS 6 Xposition Yposition Zposition Zrotation Xrotation Yrotation
JOINT lRing3
{
OFFSET 2.50 0 0
CHANNELS 6 Xposition Yposition Zposition Zrotation Xrotation Yrotation
End Site
{
OFFSET 2.20 0 0
}
}
}
}
JOINT lPinky1
{
OFFSET 7.69 0.66 -3.90
CHANNELS 6 Xposition Yposition Zposition Zrotation Xrotation Yrotation
JOINT lPinky2
{
OFFSET 3.21 0 0
CHANNELS 6 Xposition Yposition Zposition Zrotation Xrotation Yrotation
JOINT lPinky3
{
OFFSET 1.92 0 0
CHANNELS 6 Xposition Yposition Zposition Zrotation Xrotation Yrotation
End Site
{
OFFSET 1.78 0 0
}
}
}
}
}
}
}
}
JOINT rCollar
{
OFFSET -4.06 26.61 -1.12
CHANNELS 6 Xposition Yposition Zposition Zrotation Xrotation Yrotation
JOINT rShldr
{
OFFSET -14.17 0 0
CHANNELS 6 Xposition Yposition Zposition Zrotation Xrotation Yrotation
JOINT rForeArm
{
OFFSET -26.12 0 0
CHANNELS 6 Xposition Yposition Zposition Zrotation Xrotation Yrotation
JOINT rHand
{
OFFSET -27.71 0 0
CHANNELS 6 Xposition Yposition Zposition Zrotation Xrotation Yrotation
JOINT rThumb1
{
OFFSET -2.29 -0.46 1.83
CHANNELS 6 Xposition Yposition Zposition Zrotation Xrotation Yrotation
JOINT rThumb2
{
OFFSET -5.29 0 0
CHANNELS 6 Xposition Yposition Zposition Zrotation Xrotation Yrotation
JOINT rThumb3
{
OFFSET -3.01 0 0
CHANNELS 6 Xposition Yposition Zposition Zrotation Xrotation Yrotation
End Site
{
OFFSET -2.62 0 0
}
}
}
}
JOINT rIndex1
{
OFFSET -9.37 0.29 2.59
CHANNELS 6 Xposition Yposition Zposition Zrotation Xrotation Yrotation
JOINT rIndex2
{
OFFSET -4.34 0 0
CHANNELS 6 Xposition Yposition Zposition Zrotation Xrotation Yrotation
JOINT rIndex3
{
OFFSET -2.16 0 0
CHANNELS 6 Xposition Yposition Zposition Zrotation Xrotation Yrotation
End Site
{
OFFSET -2.20 0 0
}
}
}
}
JOINT rMid1
{
OFFSET -9.47 0.83 0.29
CHANNELS 6 Xposition Yposition Zposition Zrotation Xrotation Yrotation
JOINT rMid2
{
OFFSET -4.77 0 0
CHANNELS 6 Xposition Yposition Zposition Zrotation Xrotation Yrotation
JOINT rMid3
{
OFFSET -2.87 0 0
CHANNELS 6 Xposition Yposition Zposition Zrotation Xrotation Yrotation
End Site
{
OFFSET -2.09 0 0
}
}
}
}
JOINT rRing1
{
OFFSET -8.65 1.01 -1.70
CHANNELS 6 Xposition Yposition Zposition Zrotation Xrotation Yrotation
JOINT rRing2
{
OFFSET -4.54 0 0
CHANNELS 6 Xposition Yposition Zposition Zrotation Xrotation Yrotation
JOINT rRing3
{
OFFSET -2.50 0 0
CHANNELS 6 Xposition Yposition Zposition Zrotation Xrotation Yrotation
End Site
{
OFFSET -2.20 0 0
}
}
}
}
JOINT rPinky1
{
OFFSET -7.69 0.66 -3.90
CHANNELS 6 Xposition Yposition Zposition Zrotation Xrotation Yrotation
JOINT rPinky2
{
OFFSET -3.21 0 0
CHANNELS 6 Xposition Yposition Zposition Zrotation Xrotation Yrotation
JOINT rPinky3
{
OFFSET -1.92 0 0
CHANNELS 6 Xposition Yposition Zposition Zrotation Xrotation Yrotation
End Site
{
OFFSET -1.78 0 0
}
}
}
}
}
}
}
}
}
}
JOINT lThigh
{
OFFSET 8.73 -0 0
CHANNELS 6 Xposition Yposition Zposition Zrotation Xrotation Yrotation
JOINT lShin
{
OFFSET 0 -46.66 0
CHANNELS 6 Xposition Yposition Zposition Zrotation Xrotation Yrotation
JOINT lFoot
{
OFFSET 0 -40.14 0
CHANNELS 6 Xposition Yposition Zposition Zrotation Xrotation Yrotation
JOINT lToes
{
OFFSET 0 -8.88 14.22
CHANNELS 6 Xposition Yposition Zposition Zrotation Xrotation Yrotation
End Site
{
OFFSET 0 0 6.29
}
}
}
}
}
JOINT rThigh
{
OFFSET -8.73 0 -0
CHANNELS 6 Xposition Yposition Zposition Zrotation Xrotation Yrotation
JOINT rShin
{
OFFSET 0 -46.66 0
CHANNELS 6 Xposition Yposition Zposition Zrotation Xrotation Yrotation
JOINT rFoot
{
OFFSET 0 -40.14 0
CHANNELS 6 Xposition Yposition Zposition Zrotation Xrotation Yrotation
JOINT rToes
{
OFFSET 0 -8.88 14.22
CHANNELS 6 Xposition Yposition Zposition Zrotation Xrotation Yrotation
End Site
{
OFFSET 0 0 6.29
}
}
}
}
}
}
MOTION
Frames: 4
Frame Time: 0.03
-17.67 93.69 369.56 -0.02 0.38 144.59 0 7.23 0 -0.54 2.30 0.27 0 16.54 0 -1.18 6.46 0.56 0 34.21 0 0.57 32.77 1.00 0 6.29 0 -5.69 -27.46 13.23 4.06 26.61 -1.12 -6.26 -4.25 6.10 14.17 0 0 -58.41 34.04 16.42 26.12 0 0 -0.81 1.13 -108.34 27.71 0 0 -20.63 10.03 12.86 2.29 -0.46 1.83 66.05 65.93 -87.20 5.29 0 0 -11.53 8.46 2.73 3.01 0 0 50.51 12.43 -10.10 9.37 0.29 2.59 -0.98 -1.40 -3.89 4.34 0 0 -6.92 0.18 1.43 2.16 0 0 2.74 -0 -0.99 9.47 0.83 0.29 -13.12 -4.82 0.19 4.77 0 0 -13.59 -0.32 3.49 2.87 0 0 -0.22 0.10 1.47 8.65 1.01 -1.70 -22.90 1.06 4.41 4.54 0 0 -17.41 -0.36 2.36 2.50 0 0 -7.36 -0.01 1.94 7.69 0.66 -3.90 -28.72 -10.93 6.98 3.21 0 0 -22.24 -1.48 7.56 1.92 0 0 -14.03 -0.53 6.36 -4.06 26.61 -1.12 11.38 -3.17 1.78 -14.17 0 0 61.75 -3.09 29.03 -26.12 0 0 0.52 1.54 142.36 -27.71 0 0 5.30 -8.60 16.12 -2.29 -0.46 1.83 -89.97 74.05 113.47 -5.29 0 0 20.96 0.81 -13.46 -3.01 0 0 -17.70 -5.19 -20.20 -9.37 0.29 2.59 12.33 -1.82 5.15 -4.34 0 0 19.55 -0.33 -3.57 -2.16 0 0 8.72 -0.11 -1.18 -9.47 0.83 0.29 16.63 -4.97 0.05 -4.77 0 0 33.89 -2.23 -7.60 -2.87 0 0 15.61 -0.39 -4.96 -8.65 1.01 -1.70 23.85 1.15 -3.19 -4.54 0 0 51.83 -2.55 -5.26 -2.50 0 0 20.98 -0.39 -3.18 -7.69 0.66 -3.90 34.14 -11.24 -5.11 -3.21 0 0 37.71 -3.92 -11.44 -1.92 0 0 21.36 -1.22 -8.21 8.73 -0 0 -1.45 -18.59 14.76 0 -46.66 0 3.92 32.40 1.21 0 -40.14 0 2.61 -14.43 8.15 0 -8.88 14.22 0 0 0 -8.73 0 -0 -14.83 -2.99 -20.96 0 -46.66 0 -14.90 35.20 -2.59 0 -40.14 0 18.76 -1.95 -10.78 0 -8.88 14.22 0 0 0 
-17.63 93.55 367.96 0.23 0.88 145.80 0 7.23 0 -0.72 2.32 0.21 0 16.54 0 -1.27 6.50 0.41 0 34.21 0 0.73 32.70 0.99 0 6.29 0 -5.34 -27.49 13.74 4.06 26.61 -1.12 -5.60 -4.24 5.73 14.17 0 0 -59.14 32.94 17.12 26.12 0 0 -0.81 1.13 -108.86 27.71 0 0 -19.86 7.70 12.71 2.29 -0.46 1.83 66.11 65.29 -87.60 5.29 0 0 -10.84 8.49 2.35 3.01 0 0 51.18 12.25 -10.50 9.37 0.29 2.59 -0.27 -1.38 -4.02 4.34 0 0 -6.22 0.20 1.29 2.16 0 0 3.46 -0.01 -1.14 9.47 0.83 0.29 -12.41 -4.77 0.07 4.77 0 0 -12.87 -0.28 3.31 2.87 0 0 0.48 0.10 1.29 8.65 1.01 -1.70 -22.18 1.13 4.30 4.54 0 0 -16.68 -0.33 2.26 2.50 0 0 -6.63 0 1.84 7.69 0.66 -3.90 -28.02 -10.85 6.87 3.21 0 0 -21.56 -1.39 7.34 1.92 0 0 -13.33 -0.47 6.13 -4.06 26.61 -1.12 11.89 -3.12 1.79 -14.17 0 0 61.95 -4.00 30.08 -26.12 0 0 0.52 1.54 142.35 -27.71 0 0 5.53 -9.20 15.38 -2.29 -0.46 1.83 -89.97 74.05 113.47 -5.29 0 0 20.97 0.81 -13.46 -3.01 0 0 -17.70 -5.19 -20.20 -9.37 0.29 2.59 12.34 -1.82 5.15 -4.34 0 0 19.56 -0.34 -3.57 -2.16 0 0 8.73 -0.11 -1.18 -9.47 0.83 0.29 16.63 -4.97 0.05 -4.77 0 0 33.89 -2.23 -7.60 -2.87 0 0 15.61 -0.39 -4.96 -8.65 1.01 -1.70 23.83 1.15 -3.19 -4.54 0 0 51.82 -2.55 -5.26 -2.50 0 0 20.97 -0.39 -3.17 -7.69 0.66 -3.90 34.11 -11.24 -5.11 -3.21 0 0 37.69 -3.91 -11.44 -1.92 0 0 21.34 -1.22 -8.21 8.73 -0 0 -2.21 -17.47 14.80 0 -46.66 0 4.15 33.07 -0.06 0 -40.14 0 3.29 -15.77 8.30 0 -8.88 14.22 0 0 0 -8.73 0 -0 -13.54 -4.77 -18.95 0 -46.66 0 -16.80 38.49 0.34 0 -40.14 0 18.80 -3.72 -7.20 0 -8.88 14.22 0 0 0 
-17.48 93.49 366.34 0.66 1.72 147.46 0 7.23 0 -0.89 2.50 0 0 16.54 0 -1.37 6.86 0 0 34.21 0 0.88 32.64 0.99 0 6.29 0 -5.05 -27.43 14.15 4.06 26.61 -1.12 -5.23 -4.22 5.31 14.17 0 0 -59.32 31.55 17.28 26.12 0 0 -0.81 1.14 -109.34 27.71 0 0 -18.77 7.46 11.54 2.29 -0.46 1.83 66.17 64.62 -88.01 5.29 0 0 -10.14 8.52 1.97 3.01 0 0 51.87 12.06 -10.92 9.37 0.29 2.59 0.46 -1.36 -4.15 4.34 0 0 -5.49 0.22 1.14 2.16 0 0 4.19 -0.02 -1.29 9.47 0.83 0.29 -11.68 -4.73 -0.04 4.77 0 0 -12.14 -0.24 3.12 2.87 0 0 1.21 0.10 1.10 8.65 1.01 -1.70 -21.44 1.20 4.18 4.54 0 0 -15.93 -0.30 2.16 2.50 0 0 -5.88 0.01 1.73 7.69 0.66 -3.90 -27.30 -10.77 6.76 3.21 0 0 -20.85 -1.30 7.10 1.92 0 0 -12.62 -0.42 5.89 -4.06 26.61 -1.12 12.19 -3.11 1.65 -14.17 0 0 62.07 -4.76 30.93 -26.12 0 0 0.52 1.54 142.14 -27.71 0 0 5.81 -9.87 15.35 -2.29 -0.46 1.83 -89.97 74.05 113.47 -5.29 0 0 20.97 0.81 -13.46 -3.01 0 0 -17.70 -5.19 -20.20 -9.37 0.29 2.59 12.35 -1.82 5.15 -4.34 0 0 19.56 -0.34 -3.57 -2.16 0 0 8.74 -0.11 -1.18 -9.47 0.83 0.29 16.63 -4.97 0.05 -4.77 0 0 33.89 -2.23 -7.60 -2.87 0 0 15.61 -0.39 -4.96 -8.65 1.01 -1.70 23.82 1.15 -3.18 -4.54 0 0 51.81 -2.55 -5.26 -2.50 0 0 20.96 -0.39 -3.17 -7.69 0.66 -3.90 34.09 -11.24 -5.11 -3.21 0 0 37.66 -3.91 -11.43 -1.92 0 0 21.32 -1.22 -8.20 8.73 -0 0 -2.86 -15.65 14.97 0 -46.66 0 4.31 33.22 -1.80 0 -40.14 0 4.08 -16.83 8.47 0 -8.88 14.22 0 0 0 -8.73 0 -0 -11.96 -6.01 -17.28 0 -46.66 0 -18.19 40.86 2.67 0 -40.14 0 19.66 -5.74 -6.80 0 -8.88 14.22 0 0 0 
-17.30 93.50 364.75 1.08 2.52 149.41 0 7.23 0 -0.97 2.68 -0.29 0 16.54 0 -1.34 7.24 -0.61 0 34.21 0 0.94 32.57 1.02 0 6.29 0 -5.01 -27.58 14.44 4.06 26.61 -1.12 -5.21 -4.20 5.09 14.17 0 0 -58.87 29.94 16.58 26.12 0 0 -0.81 1.15 -109.70 27.71 0 0 -18.40 8.68 10.47 2.29 -0.46 1.83 66.22 63.96 -88.42 5.29 0 0 -9.42 8.54 1.58 3.01 0 0 52.56 11.86 -11.33 9.37 0.29 2.59 1.20 -1.34 -4.28 4.34 0 0 -4.76 0.23 0.98 2.16 0 0 4.93 -0.03 -1.44 9.47 0.83 0.29 -10.94 -4.68 -0.16 4.77 0 0 -11.40 -0.20 2.94 2.87 0 0 1.94 0.09 0.91 8.65 1.01 -1.70 -20.68 1.27 4.06 4.54 0 0 -15.18 -0.27 2.06 2.50 0 0 -5.13 0.02 1.63 7.69 0.66 -3.90 -26.57 -10.69 6.65 3.21 0 0 -20.13 -1.22 6.87 1.92 0 0 -11.90 -0.37 5.64 -4.06 26.61 -1.12 12.29 -3.13 1.46 -14.17 0 0 61.94 -5.05 31.60 -26.12 0 0 0.53 1.53 141.84 -27.71 0 0 5.74 -10.31 15.60 -2.29 -0.46 1.83 -89.97 74.06 113.47 -5.29 0 0 20.97 0.81 -13.46 -3.01 0 0 -17.70 -5.19 -20.20 -9.37 0.29 2.59 12.36 -1.82 5.15 -4.34 0 0 19.57 -0.34 -3.57 -2.16 0 0 8.75 -0.11 -1.18 -9.47 0.83 0.29 16.63 -4.97 0.05 -4.77 0 0 33.89 -2.23 -7.60 -2.87 0 0 15.61 -0.39 -4.96 -8.65 1.01 -1.70 23.81 1.15 -3.18 -4.54 0 0 51.80 -2.55 -5.26 -2.50 0 0 20.95 -0.39 -3.17 -7.69 0.66 -3.90 34.06 -11.23 -5.10 -3.21 0 0 37.64 -3.90 -11.43 -1.92 0 0 21.29 -1.21 -8.19 8.73 -0 0 -3.41 -13.71 15.18 0 -46.66 0 4.45 33.05 -3.83 0 -40.14 0 4.98 -17.67 8.66 0 -8.88 14.22 0 0 -0 -8.73 0 -0 -10.25 -7.45 -15.94 0 -46.66 0 -18.88 42.63 3.19 0 -40.14 0 20.46 -7.75 -6.39 0 -8.88 14.22 0 0 -0 
